# xmcd
#
# Track frame offsets:
#	150
#	31840
#	50367
#	73510
#	94152
#	107040
#	130875
#	149597
#	167312
#
# Disc length: 2431 seconds
#
# Revision: 1
# Processed by: cddbd v1.5.2PL0 Copyright (c) Steve Scherf et al.
# Submitted via: audiograbber 1.83.01
#
DISCID=75097d09
DTITLE=Roy Rogers Jr. and the High Riders - Blue Praire
DYEAR=2002
DGENRE=Country
TTITLE0=Pioneer Medley-Cimmaron/Tumble Weeds/Cool Water/Don't Fence Me In
TTITLE1=Pecos Bill
TTITLE2=Sleepwalk
TTITLE3=Trail Where They Cried
TTITLE4=Blue Praire
TTITLE5=El Paso
TTITLE6=In the Garden
TTITLE7=Spirit of '49
TTITLE8=Streets of Laredo
EXTD=
EXTT0=
EXTT1=
EXTT2=
EXTT3=
EXTT4=
EXTT5=
EXTT6=
EXTT7=
EXTT8=
PLAYORDER=
